<svg xmlns="http://www.w3.org/2000/svg" width="106.263" height="79.602" viewBox="0 0 106.263 79.602"><defs><style>.a{fill:#fff;}.b{fill:#ef420c;}</style></defs><g transform="translate(-15.064 -28.005)"><path class="a" d="M35.129,80.2h.165l21.27.417a2.1,2.1,0,0,1,1.208.428,2.481,2.481,0,0,1,.736,1.033,2.614,2.614,0,0,1,.154,1.3,2.4,2.4,0,0,1-.56,1.263l-19.259,22.72a2.494,2.494,0,0,1-.341.341,2.11,2.11,0,0,1-.385.253,2.5,2.5,0,0,1-.4.165,1.676,1.676,0,0,1-.407.088,2.367,2.367,0,0,1-.879-.066,2.169,2.169,0,0,1-.791-.407,2.242,2.242,0,0,1-.582-.7,2.33,2.33,0,0,1-.275-.978L32.921,82.87a2.606,2.606,0,0,1,.56-1.846,2.325,2.325,0,0,1,.725-.582A2.445,2.445,0,0,1,35.129,80.2Z" transform="translate(-1.179 -0.612)"/><path class="a" d="M116.092,33.25a5.185,5.185,0,0,1,2.3.505,6.193,6.193,0,0,1,1.92,1.45,7.254,7.254,0,0,1,1.336,2.2,8.151,8.151,0,0,1,.585,2.659l1.887,38.332a8.022,8.022,0,0,1-.309,2.659,7.545,7.545,0,0,1-1.1,2.307,6.5,6.5,0,0,1-1.722,1.7,5.347,5.347,0,0,1-2.207.868L31.347,99.312a8.492,8.492,0,0,1-3.411-.132A8.082,8.082,0,0,1,25,97.807a7.638,7.638,0,0,1-2.108-2.373,7.355,7.355,0,0,1-.971-3.175L17.893,43.841a8.066,8.066,0,0,1,2.163-6.218A8.59,8.59,0,0,1,22.771,35.7a8.95,8.95,0,0,1,3.422-.747Z" transform="translate(-2.8 -5.244)"/><g transform="translate(28.464 35.45)"><path class="b" d="M104.438,70.222a3.089,3.089,0,0,1,.78,0,1,1,0,0,1,.516.253,1.275,1.275,0,0,1,.3.549,3.954,3.954,0,0,1,.132.879v.835a6.164,6.164,0,0,1,0,.9,1.419,1.419,0,0,1-.242.615,1.275,1.275,0,0,1-.483.385,3.044,3.044,0,0,1-.769.2l-1.022.132a2.259,2.259,0,0,1-.769,0,.905.905,0,0,1-.516-.242,1.3,1.3,0,0,1-.308-.549,4.15,4.15,0,0,1-.132-.89v-.846a4.216,4.216,0,0,1,0-.912,1.419,1.419,0,0,1,.242-.615,1.365,1.365,0,0,1,.483-.385,2.627,2.627,0,0,1,.769-.187Z" transform="translate(-22.484 -37.26)"/><path class="b" d="M102.261,69.567l-.89-10.47a1.4,1.4,0,0,1,0-.428.517.517,0,0,1,.121-.286.552.552,0,0,1,.242-.176,1.142,1.142,0,0,1,.385-.077l2.34-.209a1.129,1.129,0,0,1,.385,0,.581.581,0,0,1,.264.121.62.62,0,0,1,.143.264,1.4,1.4,0,0,1,0,.428l.176,10.437v.439a.967.967,0,0,1-.11.3.578.578,0,0,1-.22.176,1.033,1.033,0,0,1-.363.088l-1.681.209a2.12,2.12,0,0,1-.373,0,.436.436,0,0,1-.253-.132.659.659,0,0,1-.143-.275A1.684,1.684,0,0,1,102.261,69.567Z" transform="translate(-22.537 -38.472)"/><path class="b" d="M104.008,42.841a.58.58,0,0,1,.275,0,.3.3,0,0,1,.187.11.386.386,0,0,1,.11.209,1.542,1.542,0,0,1,0,.319l.077,1.461a1.652,1.652,0,0,1,0,.33.425.425,0,0,1-.088.231.529.529,0,0,1-.176.132,1.149,1.149,0,0,1-.275,0l-3.681.2.077,1.461,2.944-.165a.627.627,0,0,1,.286,0,.346.346,0,0,1,.187.1.387.387,0,0,1,.11.209,1.02,1.02,0,0,1,.055.319l.077,1.56a1.652,1.652,0,0,1,0,.33.545.545,0,0,1-.088.22.529.529,0,0,1-.176.132.826.826,0,0,1-.286.055l-2.933.187.077,1.571,3.8-.253a.581.581,0,0,1,.275,0,.558.558,0,0,1,.176.1.387.387,0,0,1,.11.209,1.542,1.542,0,0,1,0,.319l.077,1.472a1.65,1.65,0,0,1,0,.33.447.447,0,0,1-.088.209.281.281,0,0,1-.165.132.58.58,0,0,1-.275,0l-5.966.461a.627.627,0,0,1-.286,0,.341.341,0,0,1-.2-.1.387.387,0,0,1-.11-.209,1.544,1.544,0,0,1,0-.319l-.538-10.316a1.654,1.654,0,0,1,0-.33.794.794,0,0,1,.1-.22.529.529,0,0,1,.176-.132,1.241,1.241,0,0,1,.286,0Z" transform="translate(-22.91 -39.96)"/><path class="b" d="M92.926,42.868a2.117,2.117,0,0,1-.527,0,.649.649,0,0,1-.352-.187.822.822,0,0,1-.2-.374,2.866,2.866,0,0,1-.088-.615v-.132a2.883,2.883,0,0,1,0-.615,1.026,1.026,0,0,1,.154-.4.609.609,0,0,1,.33-.22,1.712,1.712,0,0,1,.527-.088h.088a1.478,1.478,0,0,1,.538,0,.652.652,0,0,1,.341.187.86.86,0,0,1,.2.385,2.865,2.865,0,0,1,.088.615v.132a2.776,2.776,0,0,1,0,.6.768.768,0,0,1-.154.4.76.76,0,0,1-.33.22,2.023,2.023,0,0,1-.516.077Z" transform="translate(-23.485 -40.217)"/><path class="b" d="M100.017,59.031a1.4,1.4,0,0,1,.428,0,.475.475,0,0,1,.286.143.565.565,0,0,1,.165.308,3.418,3.418,0,0,1,.066.483l.077,1.461v.6a2.221,2.221,0,0,1-.077.253,1.754,1.754,0,0,1-.11.253L95.458,72.765l5.405-.659a2.645,2.645,0,0,1,.418,0,.475.475,0,0,1,.286.143.612.612,0,0,1,.165.3,3.412,3.412,0,0,1,.066.483l.121,2.2a1.78,1.78,0,0,1,0,.483.85.85,0,0,1-.121.33.7.7,0,0,1-.264.209,1.38,1.38,0,0,1-.417.11L90.9,77.731a1.475,1.475,0,0,1-.439,0,.725.725,0,0,1-.3-.132.862.862,0,0,1-.176-.308,1.778,1.778,0,0,1-.077-.483l-.088-1.516a1.438,1.438,0,0,1,0-.308,1.24,1.24,0,0,1,0-.286,1.692,1.692,0,0,1,.077-.253,1.785,1.785,0,0,1,.121-.253l5.493-10.4-5.339.538a1.473,1.473,0,0,1-.439,0,.594.594,0,0,1-.3-.154.721.721,0,0,1-.187-.319,1.94,1.94,0,0,1-.077-.505l-.132-2.263a1.946,1.946,0,0,1,0-.505.78.78,0,0,1,.143-.341.732.732,0,0,1,.275-.209,1.963,1.963,0,0,1,.439-.1Z" transform="translate(-23.754 -38.363)"/><path class="b" d="M97.126,52.082a.627.627,0,0,1,.286,0,.612.612,0,0,1,.187.1.387.387,0,0,1,.11.209,1.657,1.657,0,0,1,0,.33l.077,1.505a.833.833,0,0,1,0,.33.545.545,0,0,1-.088.22.3.3,0,0,1-.176.132,1.2,1.2,0,0,1-.286.066l-6.9.527a1.339,1.339,0,0,1-.3,0,.341.341,0,0,1-.2-.1.4.4,0,0,1-.121-.22,1.652,1.652,0,0,1,0-.33l-.055-1.022a.664.664,0,0,1,0-.209v-.187l.066-.165a1.111,1.111,0,0,1,.077-.165l3.713-6.812-3.6.187a.676.676,0,0,1-.3,0,.44.44,0,0,1-.2-.11.62.62,0,0,1-.121-.22,1.238,1.238,0,0,1-.055-.352l-.088-1.516a1.764,1.764,0,0,1,0-.341.794.794,0,0,1,.1-.22.328.328,0,0,1,.187-.132,1.339,1.339,0,0,1,.3,0l6.79-.319a1.241,1.241,0,0,1,.286,0,.357.357,0,0,1,.2.11.419.419,0,0,1,.11.22,1.544,1.544,0,0,1,0,.319l.055,1v.571l-.066.165L93.456,52.39Z" transform="translate(-23.741 -39.917)"/><path class="b" d="M85.932,51.851a1.13,1.13,0,0,1,.385,0,.5.5,0,0,1,.231.165.438.438,0,0,1,.077.264,1.067,1.067,0,0,1,0,.374l-.9,3.812a.845.845,0,0,1-.1.308.573.573,0,0,1-.154.209.546.546,0,0,1-.209.143l-.308.055-.857.066a.812.812,0,0,1-.231,0,.251.251,0,0,1-.132-.066.293.293,0,0,1-.154-.077.889.889,0,0,1,0-.242l.2-3.944a2.65,2.65,0,0,1,0-.417.639.639,0,0,1,.132-.275.491.491,0,0,1,.22-.176,1.7,1.7,0,0,1,.341-.066Z" transform="translate(-24.292 -39.071)"/><path class="b" d="M82.276,60.256a10.125,10.125,0,0,1,2.307,0,6.223,6.223,0,0,1,1.824.483,4.859,4.859,0,0,1,1.406.989,6.044,6.044,0,0,1,1.1,1.483,2.444,2.444,0,0,1,.176.472.76.76,0,0,1-.231.714,1.8,1.8,0,0,1-.406.286l-2.2,1.329L86.1,66.1l-.132.066h-.231a.6.6,0,0,1-.2,0,.369.369,0,0,1-.176-.11.8.8,0,0,1-.187-.2c-.066-.1-.132-.2-.187-.3a2.475,2.475,0,0,0-.439-.571,1.665,1.665,0,0,0-.56-.352,2.234,2.234,0,0,0-.659-.165,2.917,2.917,0,0,0-.758,0,6.3,6.3,0,0,0-1.011.187,2.183,2.183,0,0,0-.67.308,1.234,1.234,0,0,0-.363.461,1.249,1.249,0,0,0-.088.6.98.98,0,0,0,.286.659,1.639,1.639,0,0,0,.681.363,5.164,5.164,0,0,0,.989.165h1.176a17.115,17.115,0,0,1,2.109.2,6.221,6.221,0,0,1,2.011.681,4.008,4.008,0,0,1,1.538,1.549,6.259,6.259,0,0,1,.736,2.8,5.957,5.957,0,0,1-.385,2.516,5.472,5.472,0,0,1-1.351,1.989,7.355,7.355,0,0,1-2.2,1.406,11.255,11.255,0,0,1-2.8.758,10.905,10.905,0,0,1-2.4.077,6.473,6.473,0,0,1-2.022-.483,5.116,5.116,0,0,1-1.582-1.1,5.039,5.039,0,0,1-1.1-1.648,1.284,1.284,0,0,1-.143-.494.8.8,0,0,1,0-.4.782.782,0,0,1,.231-.33,2.162,2.162,0,0,1,.417-.286l2.2-1.1L79,73.286l.143-.066h.275a.412.412,0,0,1,.231,0,.729.729,0,0,1,.209.1.845.845,0,0,1,.2.2,1.4,1.4,0,0,1,.2.3,2.151,2.151,0,0,0,.439.549,2.228,2.228,0,0,0,.6.352,3.081,3.081,0,0,0,.769.154,6.167,6.167,0,0,0,.9,0A8.185,8.185,0,0,0,84,74.659a3.306,3.306,0,0,0,.758-.33,1.528,1.528,0,0,0,.45-.505,1.294,1.294,0,0,0,.121-.7.9.9,0,0,0-.242-.6,1.362,1.362,0,0,0-.582-.341A4.022,4.022,0,0,0,83.627,72a6.591,6.591,0,0,1-1.1-.066,11.769,11.769,0,0,1-2.2-.143,7.279,7.279,0,0,1-2.2-.615,4.185,4.185,0,0,1-1.758-1.538,6.326,6.326,0,0,1-.835-2.944,6.021,6.021,0,0,1,.319-2.417,5.15,5.15,0,0,1,1.252-1.967A6.433,6.433,0,0,1,79.244,60.9,9.912,9.912,0,0,1,82.276,60.256Z" transform="translate(-25.085 -38.247)"/><path class="b" d="M82.226,43.861a1.545,1.545,0,0,1,.319,0,.5.5,0,0,1,.209.121.456.456,0,0,1,.132.22,1.836,1.836,0,0,1,.055.341l.088,1.549a.947.947,0,0,1,0,.352.932.932,0,0,1-.1.242.4.4,0,0,1-.2.132.953.953,0,0,1-.308.055l-4.153.231.1,1.549,3.3-.2a1.652,1.652,0,0,1,.33,0,.387.387,0,0,1,.209.11.9.9,0,0,1,.132.22,1.225,1.225,0,0,1,.055.341l.088,1.56a.946.946,0,0,1,0,.352.366.366,0,0,1-.1.231.372.372,0,0,1-.2.143,1.545,1.545,0,0,1-.319,0l-3.3.22.1,1.659L82.94,53a.726.726,0,0,1,.308,0,.425.425,0,0,1,.33.319c.022.11.044.231.055.341l.088,1.571a.888.888,0,0,1,0,.341.437.437,0,0,1-.1.231.473.473,0,0,1-.187.143L83.127,56l-6.724.516a.779.779,0,0,1-.319,0,.382.382,0,0,1-.22-.11.425.425,0,0,1-.132-.209,1.882,1.882,0,0,1,0-.352l-.681-10.987a.948.948,0,0,1,0-.352.438.438,0,0,1,.1-.231.546.546,0,0,1,.209-.143,1.546,1.546,0,0,1,.319,0Z" transform="translate(-25.134 -39.859)"/><path class="b" d="M73.024,44.271a1.44,1.44,0,0,1,.308,0,.478.478,0,0,1,.209.11.8.8,0,0,1,.121.209c.022.11.044.22.055.33l.692,11.118a.833.833,0,0,1,0,.33.437.437,0,0,1-.1.231.574.574,0,0,1-.187.132,1.339,1.339,0,0,1-.3,0l-1.923.143a.777.777,0,0,1-.319,0,.371.371,0,0,1-.209-.1.8.8,0,0,1-.121-.209,1.656,1.656,0,0,1,0-.33l-.714-11.2a1.765,1.765,0,0,1,0-.341.793.793,0,0,1,.1-.22.4.4,0,0,1,.2-.132.953.953,0,0,1,.308-.055Z" transform="translate(-25.578 -39.818)"/><path class="b" d="M74.033,61.391a1.861,1.861,0,0,1,.494,0,.931.931,0,0,1,.33.165.892.892,0,0,1,.209.319,2.034,2.034,0,0,1,.088.516l.143,2.351a2.208,2.208,0,0,1,0,.538.8.8,0,0,1-.154.374.758.758,0,0,1-.308.22,1.817,1.817,0,0,1-.483.11l-6.5.659L68,69.005l5.208-.56a1.249,1.249,0,0,1,.494,0,.8.8,0,0,1,.341.154.744.744,0,0,1,.2.319,1.948,1.948,0,0,1,.088.505l.143,2.362a2.206,2.206,0,0,1,0,.538.816.816,0,0,1-.165.374.714.714,0,0,1-.308.231,1.817,1.817,0,0,1-.483.11l-5.2.615.165,2.538,6.68-.824a1.782,1.782,0,0,1,.483,0,.566.566,0,0,1,.319.143.578.578,0,0,1,.2.308,2.033,2.033,0,0,1,.088.516l.143,2.362a2.029,2.029,0,0,1,0,.516.743.743,0,0,1-.143.363.714.714,0,0,1-.308.231,2.385,2.385,0,0,1-.461.121L64.925,81.343a2.031,2.031,0,0,1-.516,0,.667.667,0,0,1-.352-.143.655.655,0,0,1-.209-.33,2.033,2.033,0,0,1-.088-.516l-1.1-16.809a2.208,2.208,0,0,1,0-.538.816.816,0,0,1,.165-.374.829.829,0,0,1,.33-.22,1.978,1.978,0,0,1,.505-.11Z" transform="translate(-26.356 -38.13)"/><path class="b" d="M69.149,44.481a1.652,1.652,0,0,1,.33,0,.538.538,0,0,1,.22.121.442.442,0,0,1,.132.231,1.811,1.811,0,0,1,.066.352l.714,11.151a.945.945,0,0,1,0,.352.488.488,0,0,1-.11.242.371.371,0,0,1-.2.143,1.751,1.751,0,0,1-.33.066l-1.868.143h-.428a.461.461,0,0,1-.154-.1.885.885,0,0,1-.132-.154L64.5,52.951c-.209-.308-.385-.582-.538-.857s-.3-.538-.428-.813-.253-.571-.374-.9-.264-.67-.407-1.1h-.132c.121.428.231.813.319,1.176s.176.692.253,1.1.121.7.176,1.1.088.824.132,1.329l.187,2.933a1,1,0,0,1,0,.363.488.488,0,0,1-.11.242.546.546,0,0,1-.209.143.951.951,0,0,1-.352.066l-1.736.132a.888.888,0,0,1-.341,0,.488.488,0,0,1-.242-.11.511.511,0,0,1-.143-.231.946.946,0,0,1,0-.352L59.7,45.744a2,2,0,0,1,0-.363.686.686,0,0,1,.11-.242A.511.511,0,0,1,60.041,45a1.7,1.7,0,0,1,.341-.066l2.044-.088h.45a.781.781,0,0,1,.154.11.7.7,0,0,1,.143.165L66.249,49.6c.209.308.374.571.516.824a5.642,5.642,0,0,1,.374.725l.341.758c.11.275.242.56.4.9h.143c-.165-.461-.308-.857-.428-1.22s-.22-.692-.3-1.022-.154-.681-.209-1.033c0-.374-.088-.769-.121-1.22l-.187-2.966a.945.945,0,0,1,0-.352.933.933,0,0,1,.1-.242.546.546,0,0,1,.209-.143,1.765,1.765,0,0,1,.341,0Z" transform="translate(-26.648 -39.798)"/><path class="b" d="M59.557,62.631a1.862,1.862,0,0,1,.494,0,.8.8,0,0,1,.341.154.867.867,0,0,1,.2.319,2.024,2.024,0,0,1,.077.516l1.165,17.018a2.031,2.031,0,0,1,0,.516.77.77,0,0,1-.143.352.908.908,0,0,1-.308.231,1.817,1.817,0,0,1-.483.11l-3.065.418a1.946,1.946,0,0,1-.505,0,.635.635,0,0,1-.33-.143.578.578,0,0,1-.2-.308,1.977,1.977,0,0,1-.11-.505l-1.2-17.216a2.118,2.118,0,0,1,0-.527.784.784,0,0,1,.154-.352.793.793,0,0,1,.319-.22,1.975,1.975,0,0,1,.494-.1Z" transform="translate(-27.064 -38.008)"/><path class="b" d="M58.213,44.961a.888.888,0,0,1,.341,0,.47.47,0,0,1,.231.121.489.489,0,0,1,.132.231,2.1,2.1,0,0,1,.066.363l.527,7.746a6.319,6.319,0,0,1-.165,2.033,4.066,4.066,0,0,1-2.263,2.67,5.967,5.967,0,0,1-2.087.483,5.746,5.746,0,0,1-1.681-.077,4.27,4.27,0,0,1-2.472-1.417,5.861,5.861,0,0,1-.769-1.285,1.308,1.308,0,0,1-.11-.352.394.394,0,0,1,0-.275.491.491,0,0,1,.176-.22,1.828,1.828,0,0,1,.308-.2l1.835-.813.11-.055h.483a.478.478,0,0,1,.165.088.7.7,0,0,1,.143.165l.132.231a4.21,4.21,0,0,0,.275.483,1.563,1.563,0,0,0,.33.33,1.161,1.161,0,0,0,.385.2,1.781,1.781,0,0,0,.483,0,1.67,1.67,0,0,0,.571-.132,1.013,1.013,0,0,0,.385-.33,1.451,1.451,0,0,0,.209-.505,3.874,3.874,0,0,0,0-.714L55.4,45.906a2,2,0,0,1,0-.363.488.488,0,0,1,.11-.242.531.531,0,0,1,.22-.154.945.945,0,0,1,.352,0Z" transform="translate(-27.61 -39.751)"/><path class="b" d="M51.272,57.858a.881.881,0,0,1,.1.33.3.3,0,0,1-.187.407,1.752,1.752,0,0,1-.33.066l-1.978.154a5.547,5.547,0,0,1-.6,0,1.313,1.313,0,0,1-.406-.11.854.854,0,0,1-.264-.22,1.086,1.086,0,0,1-.165-.363L46.91,56.8l-4.054.286-.319,1.4a1.622,1.622,0,0,1-.143.385.855.855,0,0,1-.22.264.807.807,0,0,1-.385.165,2.571,2.571,0,0,1-.582.088l-2,.154a1,1,0,0,1-.363,0,.3.3,0,0,1-.209-.132.47.47,0,0,1-.066-.242.946.946,0,0,1,0-.352l3.483-12.393a1.927,1.927,0,0,1,.132-.352.614.614,0,0,1,.45-.33H43l2.175-.11h.363a1.146,1.146,0,0,1,.275.088.849.849,0,0,1,.209.187,1.009,1.009,0,0,1,.176.3Zm-7.8-3.8,2.34-.154-.846-2.2a7.239,7.239,0,0,1-.3-.945c-.077-.3-.143-.582-.187-.824a5.333,5.333,0,0,1-.1-.6v-.264h-.176v.868a4.614,4.614,0,0,1-.055.835,9.552,9.552,0,0,1-.143.956l-.527,2.285" transform="translate(-28.733 -39.684)"/><path class="b" d="M55.479,63.192a1.248,1.248,0,0,1,.494,0,.433.433,0,0,1,.275.187.6.6,0,0,1,.077.341,2.032,2.032,0,0,1,0,.516L53.238,82.21a1.723,1.723,0,0,1-.143.516,1.245,1.245,0,0,1-.264.33,1.776,1.776,0,0,1-.385.187,2.061,2.061,0,0,1-.516.11l-3.186.428a2.3,2.3,0,0,1-.549,0,1.149,1.149,0,0,1-.428-.088.849.849,0,0,1-.319-.242,1.021,1.021,0,0,1-.22-.417l-1.989-6.35q-.181-.643-.33-1.285c-.1-.418-.176-.846-.253-1.263s-.132-.835-.187-1.241-.1-.813-.132-1.219h-.231v2.483a6.488,6.488,0,0,1-.088,1.3c-.088.439-.088.9-.154,1.373l-1,6.7a1.776,1.776,0,0,1-.187.527.95.95,0,0,1-.286.341,1.4,1.4,0,0,1-.406.2,2.922,2.922,0,0,1-.538.11l-3.3.439a4.76,4.76,0,0,1-.56,0,1.254,1.254,0,0,1-.45-.077.922.922,0,0,1-.341-.242,1.324,1.324,0,0,1-.22-.45L30.5,66.554a2.764,2.764,0,0,1-.143-.516.577.577,0,0,1,0-.385.514.514,0,0,1,.264-.242,1.593,1.593,0,0,1,.549-.121l3.637-.33a6.587,6.587,0,0,1,.659,0,1.24,1.24,0,0,1,.483.11.809.809,0,0,1,.341.3,1.609,1.609,0,0,1,.231.527l1.857,7.383c.088.363.176.813.264,1.285s.176.978.242,1.461.132.945.187,1.34.077.714.088.912h.2V74.519a9.383,9.383,0,0,1,.132-1.34l1.209-7.691a1.5,1.5,0,0,1,.176-.571.981.981,0,0,1,.3-.341,1.262,1.262,0,0,1,.45-.187,5.563,5.563,0,0,1,.593-.1l3.065-.275a5.148,5.148,0,0,1,.582,0,1.1,1.1,0,0,1,.461.11.9.9,0,0,1,.352.286,1.737,1.737,0,0,1,.253.516l2.2,7.174c.121.385.22.835.319,1.3s.187.945.264,1.406.143.9.2,1.274.088.681.11.89h.209V73.322a8.476,8.476,0,0,1,.066-1.329l.615-7.416a2.38,2.38,0,0,1,.143-.549.921.921,0,0,1,.275-.341,1.3,1.3,0,0,1,.439-.187,6.184,6.184,0,0,1,.626-.1Z" transform="translate(-29.545 -37.953)"/><path class="b" d="M38.531,45.911a2.374,2.374,0,0,1,.4,0,.6.6,0,0,1,.264.132.53.53,0,0,1,.165.242,1.8,1.8,0,0,1,.11.418l.132,1.725a1.262,1.262,0,0,1,0,.406.58.58,0,0,1-.121.264.7.7,0,0,1-.242.154,2.162,2.162,0,0,1-.385.066l-5.153.275.176,2.2,4.12-.242a2.381,2.381,0,0,1,.4,0,.725.725,0,0,1,.264.121.7.7,0,0,1,.154.242,1.141,1.141,0,0,1,.077.385l.132,1.714a1.261,1.261,0,0,1,0,.406.486.486,0,0,1-.121.264.439.439,0,0,1-.242.154,1.131,1.131,0,0,1-.385.066l-4.109.275.3,3.911a1.13,1.13,0,0,1,0,.385.486.486,0,0,1-.121.264.439.439,0,0,1-.242.154,1.494,1.494,0,0,1-.385.077l-2.2.165a1.262,1.262,0,0,1-.407,0,.519.519,0,0,1-.275-.121.6.6,0,0,1-.165-.242,2.162,2.162,0,0,1-.066-.385l-.967-12.261a1.13,1.13,0,0,1,0-.385.6.6,0,0,1,.132-.264.467.467,0,0,1,.253-.154,2.478,2.478,0,0,1,.4-.066Z" transform="translate(-29.615 -39.657)"/></g></g></svg>